HIERARCHY
ROOT Hips
{
	OFFSET 0.000000 71.427986 0.000000
	CHANNELS 6 Xposition Yposition Zposition Xrotation Yrotation Zrotation
	JOINT Pelvis
	{
		OFFSET 0.000000 0.000000 0.000000
		CHANNELS 3 Xrotation Yrotation Zrotation
		JOINT LeftUpLeg
		{
			OFFSET 6.797100 -2.508499 -1.318700
			CHANNELS 3 Xrotation Yrotation Zrotation
			JOINT LeftLeg
			{
				OFFSET 0.069008 -29.241863 0.690200
				CHANNELS 3 Xrotation Yrotation Zrotation
				JOINT LeftFoot
				{
					OFFSET -0.069008 -29.568123 -0.266800
					CHANNELS 3 Xrotation Yrotation Zrotation
					JOINT LeftToeBase
					{
						OFFSET 3.145500 -8.631000 16.059900
						CHANNELS 3 Xrotation Yrotation Zrotation
						End Site
						{
							OFFSET 0.000000 18.501587 0.000000
						}
					}
				}
			}
			JOINT Left_ShortSleeve
			{
				OFFSET 0.265923 -10.480953 1.153800
				CHANNELS 3 Xrotation Yrotation Zrotation
				End Site
				{
					OFFSET 1.725763 19.823879 0.000000
				}
			}
		}
		JOINT RightUpLeg
		{
			OFFSET -6.797100 -2.508499 -1.318700
			CHANNELS 3 Xrotation Yrotation Zrotation
			JOINT RightLeg
			{
				OFFSET -0.082453 -29.241932 0.688000
				CHANNELS 3 Xrotation Yrotation Zrotation
				JOINT RightFoot
				{
					OFFSET 0.082453 -29.568058 -0.264600
					CHANNELS 3 Xrotation Yrotation Zrotation
					JOINT RightToeBase
					{
						OFFSET -3.115300 -8.682800 16.113400
						CHANNELS 3 Xrotation Yrotation Zrotation
						End Site
						{
							OFFSET 0.000000 18.567114 0.000000
						}
					}
				}
			}
			JOINT Right_ShortSleeve
			{
				OFFSET -0.265923 -10.480953 1.153800
				CHANNELS 3 Xrotation Yrotation Zrotation
				End Site
				{
					OFFSET -1.725766 19.823910 0.000000
				}
			}
		}
	}
	JOINT Spine
	{
		OFFSET 0.000000 13.368103 0.470500
		CHANNELS 3 Xrotation Yrotation Zrotation
		JOINT Spine1
		{
			OFFSET 0.147000 13.837402 0.538800
			CHANNELS 3 Xrotation Yrotation Zrotation
			JOINT Spine2
			{
				OFFSET 0.168000 16.242897 -1.435500
				CHANNELS 3 Xrotation Yrotation Zrotation
				JOINT Neck
				{
					OFFSET 0.217200 18.631500 -1.679100
					CHANNELS 3 Xrotation Yrotation Zrotation
					JOINT Head
					{
						OFFSET 0.000000 6.599396 1.385900
						CHANNELS 3 Xrotation Yrotation Zrotation
						JOINT Hat
						{
							OFFSET -0.532200 27.220596 -10.096100
							CHANNELS 3 Xrotation Yrotation Zrotation
							End Site
							{
								OFFSET 0.000000 22.029861 0.000000
							}
						}
						JOINT HairD
						{
							OFFSET -10.777400 17.437393 -1.325900
							CHANNELS 3 Xrotation Yrotation Zrotation
							JOINT HairD1
							{
								OFFSET -3.290299 -11.051193 1.062200
								CHANNELS 3 Xrotation Yrotation Zrotation
								End Site
								{
									OFFSET 0.000000 11.579437 0.000000
								}
							}
						}
						JOINT HairB
						{
							OFFSET -10.777400 17.437393 1.467900
							CHANNELS 3 Xrotation Yrotation Zrotation
							JOINT HairB1
							{
								OFFSET -1.561200 -12.956299 3.590200
								CHANNELS 3 Xrotation Yrotation Zrotation
								End Site
								{
									OFFSET 0.000000 13.534866 0.000000
								}
							}
						}
						JOINT HairA
						{
							OFFSET 9.713100 17.437393 1.467900
							CHANNELS 3 Xrotation Yrotation Zrotation
							JOINT HairA1
							{
								OFFSET 1.561200 -12.956299 3.590200
								CHANNELS 3 Xrotation Yrotation Zrotation
								End Site
								{
									OFFSET 0.000000 13.534866 0.000000
								}
							}
						}
						JOINT HairC
						{
							OFFSET 9.713100 17.437393 -1.325900
							CHANNELS 3 Xrotation Yrotation Zrotation
							JOINT HairC1
							{
								OFFSET 3.290300 -11.051193 1.062200
								CHANNELS 3 Xrotation Yrotation Zrotation
								End Site
								{
									OFFSET 0.000000 11.579437 0.000000
								}
							}
						}
					}
				}
				JOINT LeftShoulder
				{
					OFFSET 5.101800 15.108002 -2.763700
					CHANNELS 3 Xrotation Yrotation Zrotation
					JOINT LeftArm
					{
						OFFSET 9.825497 2.506317 -1.597400
						CHANNELS 3 Xrotation Yrotation Zrotation
						JOINT LeftForeArm
						{
							OFFSET 21.966244 0.000000 0.000000
							CHANNELS 3 Xrotation Yrotation Zrotation
							JOINT LeftHand
							{
								OFFSET 33.879036 0.000000 0.000000
								CHANNELS 3 Xrotation Yrotation Zrotation
								JOINT LeftHandThumb1
								{
									OFFSET 6.715286 -2.359680 3.363841
									CHANNELS 3 Xrotation Yrotation Zrotation
									JOINT LeftHandThumb2
									{
										OFFSET 2.507072 -1.447464 1.447461
										CHANNELS 3 Xrotation Yrotation Zrotation
										JOINT LeftHandThumb3
										{
											OFFSET 2.898338 -1.673355 1.673357
											CHANNELS 3 Xrotation Yrotation Zrotation
											End Site
											{
												OFFSET -0.295959 3.727692 -0.131651
											}
										}
									}
								}
								JOINT LeftHandIndex1
								{
									OFFSET 14.190811 -0.254547 3.840278
									CHANNELS 3 Xrotation Yrotation Zrotation
									JOINT LeftHandIndex2
									{
										OFFSET 3.551727 0.000000 -0.000000
										CHANNELS 3 Xrotation Yrotation Zrotation
										JOINT LeftHandIndex3
										{
											OFFSET 2.894196 0.000000 0.000000
											CHANNELS 3 Xrotation Yrotation Zrotation
											End Site
											{
												OFFSET -1.000603 2.690872 0.366626
											}
										}
									}
								}
								JOINT LeftHandMiddle1
								{
									OFFSET 13.776489 0.000000 0.000000
									CHANNELS 3 Xrotation Yrotation Zrotation
									JOINT LeftHandMiddle2
									{
										OFFSET 3.438232 0.000000 0.000000
										CHANNELS 3 Xrotation Yrotation Zrotation
										JOINT LeftHandMiddle3
										{
											OFFSET 3.691551 0.000000 0.000000
											CHANNELS 3 Xrotation Yrotation Zrotation
											End Site
											{
												OFFSET -1.082298 3.499527 0.457670
											}
										}
									}
								}
								JOINT LeftHandRing1
								{
									OFFSET 13.966164 -0.268127 -3.067488
									CHANNELS 3 Xrotation Yrotation Zrotation
									JOINT LeftHandRing2
									{
										OFFSET 3.162567 0.000000 0.000000
										CHANNELS 3 Xrotation Yrotation Zrotation
										JOINT LeftHandRing3
										{
											OFFSET 3.324348 0.000000 0.000000
											CHANNELS 3 Xrotation Yrotation Zrotation
											End Site
											{
												OFFSET -0.861900 3.184998 0.405154
											}
										}
									}
								}
								JOINT LeftHandPinky1
								{
									OFFSET 13.131393 -0.168503 -5.746925
									CHANNELS 3 Xrotation Yrotation Zrotation
									JOINT LeftHandPinky2
									{
										OFFSET 2.849182 0.000000 0.000000
										CHANNELS 3 Xrotation Yrotation Zrotation
										JOINT LeftHandPinky3
										{
											OFFSET 2.805038 0.000000 0.000000
											CHANNELS 3 Xrotation Yrotation Zrotation
											End Site
											{
												OFFSET -0.882500 2.642609 0.325652
											}
										}
									}
								}
							}
							JOINT Left_Sleeve
							{
								OFFSET 6.592125 -0.646545 0.805568
								CHANNELS 3 Xrotation Yrotation Zrotation
								End Site
								{
									OFFSET -0.000179 20.275787 -0.000000
								}
							}
						}
					}
				}
				JOINT RightShoulder
				{
					OFFSET -5.731700 15.108002 -2.763700
					CHANNELS 3 Xrotation Yrotation Zrotation
					JOINT RightArm
					{
						OFFSET -9.825497 2.506317 -1.597400
						CHANNELS 3 Xrotation Yrotation Zrotation
						JOINT RightForeArm
						{
							OFFSET -21.966242 0.000000 0.000000
							CHANNELS 3 Xrotation Yrotation Zrotation
							JOINT RightHand
							{
								OFFSET -33.879032 0.000000 0.000000
								CHANNELS 3 Xrotation Yrotation Zrotation
								JOINT RightHandThumb1
								{
									OFFSET -6.715286 -2.359680 3.363841
									CHANNELS 3 Xrotation Yrotation Zrotation
									JOINT RightHandThumb2
									{
										OFFSET -2.507072 -1.447464 1.447461
										CHANNELS 3 Xrotation Yrotation Zrotation
										JOINT RightHandThumb3
										{
											OFFSET -2.898338 -1.673355 1.673357
											CHANNELS 3 Xrotation Yrotation Zrotation
											End Site
											{
												OFFSET 0.295959 3.727692 -0.131651
											}
										}
									}
								}
								JOINT RightHandIndex1
								{
									OFFSET -14.190811 -0.254547 3.840278
									CHANNELS 3 Xrotation Yrotation Zrotation
									JOINT RightHandIndex2
									{
										OFFSET -3.551727 0.000000 -0.000000
										CHANNELS 3 Xrotation Yrotation Zrotation
										JOINT RightHandIndex3
										{
											OFFSET -2.894196 0.000000 0.000000
											CHANNELS 3 Xrotation Yrotation Zrotation
											End Site
											{
												OFFSET 1.000603 2.690872 0.366626
											}
										}
									}
								}
								JOINT RightHandMiddle1
								{
									OFFSET -13.776489 0.000000 0.000000
									CHANNELS 3 Xrotation Yrotation Zrotation
									JOINT RightHandMiddle2
									{
										OFFSET -3.438232 0.000000 0.000000
										CHANNELS 3 Xrotation Yrotation Zrotation
										JOINT RightHandMiddle3
										{
											OFFSET -3.691551 0.000000 0.000000
											CHANNELS 3 Xrotation Yrotation Zrotation
											End Site
											{
												OFFSET 1.082298 3.499527 0.457670
											}
										}
									}
								}
								JOINT RightHandRing1
								{
									OFFSET -13.966164 -0.268127 -3.067488
									CHANNELS 3 Xrotation Yrotation Zrotation
									JOINT RightHandRing2
									{
										OFFSET -3.162567 0.000000 0.000000
										CHANNELS 3 Xrotation Yrotation Zrotation
										JOINT RightHandRing3
										{
											OFFSET -3.324348 0.000000 0.000000
											CHANNELS 3 Xrotation Yrotation Zrotation
											End Site
											{
												OFFSET 0.861900 3.184998 0.405154
											}
										}
									}
								}
								JOINT RightHandPinky1
								{
									OFFSET -13.131393 -0.168503 -5.746925
									CHANNELS 3 Xrotation Yrotation Zrotation
									JOINT RightHandPinky2
									{
										OFFSET -2.849182 0.000000 0.000000
										CHANNELS 3 Xrotation Yrotation Zrotation
										JOINT RightHandPinky3
										{
											OFFSET -2.805038 0.000000 0.000000
											CHANNELS 3 Xrotation Yrotation Zrotation
											End Site
											{
												OFFSET 0.882500 2.642609 0.325652
											}
										}
									}
								}
							}
							JOINT Right_Sleeve
							{
								OFFSET -6.592125 -0.646545 0.805568
								CHANNELS 3 Xrotation Yrotation Zrotation
								End Site
								{
									OFFSET 0.000179 20.275787 -0.000000
								}
							}
						}
					}
				}
				JOINT Bind_Right_JacketString
				{
					OFFSET -3.534800 11.969597 7.200700
					CHANNELS 3 Xrotation Yrotation Zrotation
					JOINT Bind_Right_JacketString1
					{
						OFFSET -0.319900 -6.102600 2.794100
						CHANNELS 3 Xrotation Yrotation Zrotation
						End Site
						{
							OFFSET 0.000000 6.719452 0.000000
						}
					}
				}
				JOINT Bind_Left_JacketString
				{
					OFFSET 2.904800 11.969597 7.200700
					CHANNELS 3 Xrotation Yrotation Zrotation
					JOINT Bind_Left_JacketString1
					{
						OFFSET 0.364800 -5.904503 3.186800
						CHANNELS 3 Xrotation Yrotation Zrotation
						End Site
						{
							OFFSET 0.000000 6.719513 0.000000
						}
					}
				}
				JOINT HairE
				{
					OFFSET 5.915200 17.612701 -11.592200
					CHANNELS 3 Xrotation Yrotation Zrotation
					JOINT HairE1
					{
						OFFSET 0.289200 -7.171898 -1.284500
						CHANNELS 3 Xrotation Yrotation Zrotation
						End Site
						{
							OFFSET 0.000000 7.291756 0.000000
						}
					}
				}
				JOINT HairF
				{
					OFFSET -0.864800 17.612701 -11.592200
					CHANNELS 3 Xrotation Yrotation Zrotation
					JOINT HairF1
					{
						OFFSET 0.000000 -14.087097 -2.127501
						CHANNELS 3 Xrotation Yrotation Zrotation
						End Site
						{
							OFFSET 0.000000 14.246841 0.000000
						}
					}
				}
				JOINT HairG
				{
					OFFSET -8.087700 17.612701 -11.592200
					CHANNELS 3 Xrotation Yrotation Zrotation
					JOINT HairG1
					{
						OFFSET -0.293600 -6.081398 -0.910100
						CHANNELS 3 Xrotation Yrotation Zrotation
						End Site
						{
							OFFSET 0.000000 6.156120 0.000000
						}
					}
				}
			}
		}
	}
	JOINT Pouch
	{
		OFFSET 0.000000 4.394501 10.847300
		CHANNELS 3 Xrotation Yrotation Zrotation
		End Site
		{
			OFFSET 0.000000 21.880577 0.000000
		}
	}
	JOINT Bag
	{
		OFFSET -13.229000 4.813004 -0.593300
		CHANNELS 3 Xrotation Yrotation Zrotation
		End Site
		{
			OFFSET 0.000000 21.880577 0.000000
		}
	}
	JOINT OccupyGuyFacialAnim_Joint
	{
		OFFSET 1.000000 -70.206398 -1.655000
		CHANNELS 3 Xrotation Yrotation Zrotation
		End Site
		{
			OFFSET 0.000000 21.880577 0.000000
		}
	}
}
MOTION
Frames: 4
Frame Time: 0.033333
29.516653 68.965134 2.981131 -4.567672 -1.005392 4.702394 -0.000001 0.000000 -0.000000 -8.658971 5.353639 -2.619460 28.536995 -6.113894 1.443179 -14.954125 0.548039 -1.321225 0.000000 0.000000 0.000000 -0.000000 -0.000000 -0.000000 -9.525325 -8.974966 -3.739185 38.879472 -10.889208 -0.221831 -22.532587 -2.878770 2.162875 -0.000000 -0.000000 0.000000 -0.000000 -0.000000 -0.000000 10.348731 1.005146 -7.502463 2.351069 0.457070 -1.102664 2.339931 0.461722 -1.124716 -4.345017 -0.724133 0.954426 -4.536601 -9.198141 11.603593 0.000000 0.000000 0.000000 0.000000 0.000000 0.000000 0.000000 0.000000 0.000001 0.000000 0.000000 -0.000001 0.000000 0.000000 -0.000001 0.000000 0.000000 -0.000001 0.000000 0.000000 -0.000001 0.000000 0.000000 0.000000 0.000000 0.000000 0.000000 0.662396 -2.557346 -9.889647 -2.433235 -22.266893 -52.133048 0.000001 -25.242426 0.000014 7.097843 -4.032027 4.577581 -9.058711 10.349051 -0.031093 14.492898 14.938973 9.795407 -0.000000 -0.000002 -0.000006 0.408373 4.246792 -21.264728 0.320166 1.911903 -19.010932 0.000002 0.000001 -0.000000 0.648242 4.910394 -26.535678 0.551367 2.483069 -25.034786 0.000005 0.000002 -0.000003 1.035965 5.589087 -33.940996 0.627790 2.640390 -26.744652 0.000002 0.000001 -0.000003 1.175964 5.876757 -36.167798 0.662932 2.708945 -27.497811 -0.000002 -0.000001 -0.000001 -0.000002 0.000000 -0.000001 0.779380 5.630573 12.120048 2.493883 13.113632 61.794497 -0.000004 35.007011 -0.000005 8.118052 0.773448 -0.655831 -8.665015 -9.559321 -1.443766 13.435044 -20.591277 -6.055046 -0.000002 -0.000003 0.000001 1.376337 -5.973997 23.701134 0.400143 -1.890371 23.901062 -0.000002 0.000002 -0.000001 1.769966 -6.430555 30.963833 0.652465 -2.379242 30.666702 -0.000000 -0.000003 0.000000 1.013640 -5.119952 38.160936 0.755482 -2.544810 33.064345 0.000006 -0.000000 -0.000004 1.072314 -5.287067 39.075861 0.676973 -2.420070 31.252326 -0.000002 -0.000001 -0.000003 0.000002 -0.000003 0.000001 -0.000001 0.000000 -0.000000 0.000000 -0.000000 0.000000 -0.000001 0.000000 -0.000000 -0.000001 0.000000 -0.000000 -0.000001 0.000000 -0.000000 0.000000 -0.000000 0.000000 -0.000001 0.000000 -0.000000 -0.000001 0.000000 -0.000000 -0.000001 0.000000 -0.000000 0.000000 -0.000000 0.000000 -0.000001 0.000000 -0.000000 -0.000001 0.000000 -0.000000 -0.000001 0.000000 -0.000000 
29.711714 68.903343 3.202176 -4.856204 -2.053783 5.067876 0.000000 0.000000 0.000000 -8.248753 5.688424 -3.168947 29.159748 -5.345338 1.449049 -15.733349 0.598108 -1.738013 -0.000000 -0.000000 -0.000000 0.000000 0.000000 -0.000000 -7.148805 -9.020928 -2.568506 34.950259 -9.867836 -1.084405 -23.566632 -10.912388 1.162534 0.000000 0.000002 -0.000000 0.000001 0.000001 -0.000000 10.471788 0.904511 -8.538027 2.498974 0.468912 -1.418227 2.486997 0.477235 -1.442301 -4.594376 -0.749002 0.920056 -1.947623 -9.343339 12.303249 -0.000000 -0.000001 0.000000 -0.000000 -0.000001 0.000000 -0.000000 -0.000001 -0.000000 -0.000000 -0.000001 0.000000 -0.000000 0.000000 -0.000000 -0.000000 -0.000001 0.000000 -0.000000 0.000000 -0.000000 -0.000000 -0.000001 0.000000 -0.000000 -0.000001 0.000000 0.631144 -1.932541 -10.365961 -2.686913 -23.178863 -52.278005 -0.000001 -22.258188 0.000000 3.596518 -6.158349 5.244782 -9.335851 10.636649 -0.162376 14.575349 14.574065 9.576484 0.000001 -0.000001 -0.000004 0.509226 4.573259 -23.408580 0.459349 2.275888 -22.819112 0.000000 -0.000002 -0.000000 0.824626 5.245137 -29.865699 0.767428 2.900619 -29.632957 -0.000000 0.000001 -0.000001 1.237844 5.874028 -37.115723 0.923601 3.159078 -32.587222 0.000000 0.000003 0.000000 1.359086 6.110034 -39.227955 0.971763 3.233062 -33.450831 -0.000002 0.000002 0.000003 0.000002 -0.000004 0.000001 0.744576 5.105674 12.209516 1.288441 14.355123 63.730890 -0.000011 31.876158 0.000022 8.899774 2.895420 -1.210220 -9.353142 -9.728536 -2.114309 13.457250 -20.273175 -5.727594 -0.000002 -0.000001 0.000001 1.487246 -6.257943 24.928871 0.514754 -2.130145 27.167622 0.000001 0.000000 -0.000001 1.919264 -6.588571 32.158108 0.803696 -2.617301 34.135107 0.000000 -0.000003 -0.000001 1.145019 -5.282280 40.414270 0.950349 -2.821305 37.225525 -0.000003 0.000002 -0.000002 1.210992 -5.446541 41.893795 0.934437 -2.800287 36.901299 -0.000002 -0.000001 -0.000003 0.000002 0.000000 -0.000001 -0.000000 0.000000 0.000000 -0.000000 -0.000000 0.000000 -0.000000 0.000000 -0.000000 -0.000000 0.000000 -0.000000 -0.000000 0.000000 0.000000 -0.000000 -0.000000 -0.000000 -0.000000 0.000000 -0.000000 -0.000000 0.000000 -0.000000 -0.000000 0.000000 0.000000 -0.000000 -0.000000 -0.000000 0.000000 0.000000 0.000000 0.000000 0.000000 0.000000 0.000000 0.000000 0.000000 
29.905756 68.783661 3.404175 -5.126502 -3.146359 5.427949 -0.000000 -0.000000 -0.000000 -7.877207 5.925566 -3.793518 29.801324 -4.387010 1.415427 -16.463727 0.609444 -1.838533 0.000000 0.000000 -0.000000 -0.000001 0.000000 0.000000 -6.844178 -8.782022 -3.015748 35.071054 -10.177556 -1.213999 -24.286780 -11.098035 1.485590 -0.000000 -0.000001 -0.000000 -0.000001 -0.000001 -0.000000 10.996079 1.234853 -8.805476 2.730506 0.560542 -1.598041 2.716965 0.568359 -1.624085 -5.045873 -0.818718 0.990200 -0.247714 -9.409364 12.339275 0.000000 -0.000001 -0.000000 0.000000 -0.000001 -0.000000 0.000000 -0.000001 0.000000 0.000000 -0.000001 -0.000000 0.000000 -0.000001 0.000000 0.000000 -0.000001 -0.000000 0.000000 -0.000001 0.000000 0.000000 -0.000001 -0.000000 0.000000 -0.000001 -0.000000 0.622058 -1.322664 -11.478680 -5.774909 -25.504063 -53.621104 -0.000000 -14.241357 -0.000006 2.498790 -11.372465 6.175183 -9.613006 10.925043 -0.291573 14.657540 14.208159 9.359022 0.000000 0.000001 0.000005 0.629099 4.869332 -25.339338 0.602547 2.589727 -26.191436 -0.000000 -0.000001 -0.000004 1.006297 5.543556 -32.910590 0.988594 3.258337 -33.748129 0.000003 0.000002 -0.000001 1.440010 6.127118 -40.041642 1.234949 3.599239 -37.865387 0.000005 0.000001 -0.000002 1.536641 6.315018 -42.041604 1.298344 3.679157 -38.864210 -0.000003 0.000003 -0.000000 0.000001 0.000000 -0.000001 0.699986 4.852528 12.497516 -0.663150 14.886525 64.708037 -0.000004 28.117005 0.000000 7.137662 6.688604 -3.823816 -10.006081 -9.897245 -2.728127 13.479316 -19.954456 -5.400678 0.000003 -0.000001 0.000002 1.603279 -6.528718 26.023815 0.625159 -2.332617 30.002791 0.000001 -0.000000 0.000005 2.065857 -6.737242 33.251861 0.949223 -2.819822 37.202674 -0.000000 -0.000001 0.000001 1.270035 -5.424061 42.422424 1.141585 -3.056412 40.954282 -0.000000 0.000000 -0.000002 1.340147 -5.583016 44.422478 1.195426 -3.117259 41.953853 0.000002 0.000005 -0.000002 0.000003 0.000003 -0.000000 0.000001 0.000000 0.000000 0.000001 0.000000 0.000000 0.000001 0.000000 0.000000 0.000001 0.000000 0.000000 0.000001 0.000000 0.000000 0.000001 0.000000 0.000000 0.000001 0.000000 0.000000 0.000001 0.000000 0.000000 0.000001 0.000000 0.000000 0.000001 0.000000 0.000000 -0.000000 -0.000000 -0.000000 -0.000000 -0.000000 -0.000000 -0.000000 -0.000000 -0.000000 
29.905756 68.783661 3.404175 -5.126502 -3.146359 5.427949 -0.000000 -0.000000 -0.000000 -7.877207 5.925566 -3.793518 29.801324 -4.387010 1.415427 -16.463727 0.609444 -1.838533 0.000000 0.000000 -0.000000 -0.000001 0.000000 0.000000 -6.844178 -8.782022 -3.015748 35.071054 -10.177556 -1.213999 -24.286780 -11.098035 1.485590 -0.000000 -0.000001 -0.000000 -0.000001 -0.000001 -0.000000 10.996079 1.234853 -8.805476 2.730506 0.560542 -1.598041 2.716965 0.568359 -1.624085 -5.045873 -0.818718 0.990200 -0.247714 -9.409364 12.339275 0.000000 -0.000001 -0.000000 0.000000 -0.000001 -0.000000 0.000000 -0.000001 0.000000 0.000000 -0.000001 -0.000000 0.000000 -0.000001 0.000000 0.000000 -0.000001 -0.000000 0.000000 -0.000001 0.000000 0.000000 -0.000001 -0.000000 0.000000 -0.000001 -0.000000 0.622058 -1.322664 -11.478680 -5.774909 -25.504063 -53.621104 -0.000000 -14.241357 -0.000006 2.498790 -11.372465 6.175183 -9.613006 10.925043 -0.291573 14.657540 14.208159 9.359022 0.000000 0.000001 0.000005 0.629099 4.869332 -25.339338 0.602547 2.589727 -26.191436 -0.000000 -0.000001 -0.000004 1.006297 5.543556 -32.910590 0.988594 3.258337 -33.748129 0.000003 0.000002 -0.000001 1.440010 6.127118 -40.041642 1.234949 3.599239 -37.865387 0.000005 0.000001 -0.000002 1.536641 6.315018 -42.041604 1.298344 3.679157 -38.864210 -0.000003 0.000003 -0.000000 0.000001 0.000000 -0.000001 0.699986 4.852528 12.497516 -0.663150 14.886525 64.708037 -0.000004 28.117005 0.000000 7.137662 6.688604 -3.823816 -10.006081 -9.897245 -2.728127 13.479316 -19.954456 -5.400678 0.000003 -0.000001 0.000002 1.603279 -6.528718 26.023815 0.625159 -2.332617 30.002791 0.000001 -0.000000 0.000005 2.065857 -6.737242 33.251861 0.949223 -2.819822 37.202674 -0.000000 -0.000001 0.000001 1.270035 -5.424061 42.422424 1.141585 -3.056412 40.954282 -0.000000 0.000000 -0.000002 1.340147 -5.583016 44.422478 1.195426 -3.117259 41.953853 0.000002 0.000005 -0.000002 0.000003 0.000003 -0.000000 0.000001 0.000000 0.000000 0.000001 0.000000 0.000000 0.000001 0.000000 0.000000 0.000001 0.000000 0.000000 0.000001 0.000000 0.000000 0.000001 0.000000 0.000000 0.000001 0.000000 0.000000 0.000001 0.000000 0.000000 0.000001 0.000000 0.000000 0.000001 0.000000 0.000000 -0.000000 -0.000000 -0.000000 -0.000000 -0.000000 -0.000000 -0.000000 -0.000000 -0.000000 
